HIERARCHY
ROOT Hips
{
  OFFSET 1.44925e-005 102.336 -0.101585
  CHANNELS 6 Xposition Yposition Zposition Zrotation Xrotation Yrotation
  JOINT LeftUpLeg
  {
    OFFSET 8.9458 -8.66707 0.101652
    CHANNELS 3 Zrotation Xrotation Yrotation
    JOINT LeftLeg
    {
      OFFSET 0 -44.4227 1.3727
      CHANNELS 3 Zrotation Xrotation Yrotation
      JOINT LeftFoot
      {
        OFFSET -0.253549 -42.0924 -1.46059
        CHANNELS 3 Zrotation Xrotation Yrotation
        JOINT LeftToes
        {
          OFFSET -0.04 -4.41509 8.4991
          CHANNELS 3 Zrotation Xrotation Yrotation
          End Site
          {
            OFFSET 0.08 -0.047448 9.77979
          }
        }
      }
    }
  }
  JOINT Spine
  {
    OFFSET 0 11.8905 0
    CHANNELS 3 Zrotation Xrotation Yrotation
    JOINT Spine1
    {
      OFFSET 0 25.6574 0.127663
      CHANNELS 3 Zrotation Xrotation Yrotation
      JOINT RightShoulder
      {
        OFFSET -8.99 -0.362252 -0.22
        CHANNELS 3 Zrotation Xrotation Yrotation
        JOINT RightArm
        {
          OFFSET -10.2827 -0.00338 0.322123
          CHANNELS 3 Zrotation Xrotation Yrotation
          JOINT RightForeArm
          {
            OFFSET -26.364 0.099144 -1.42434
            CHANNELS 3 Zrotation Xrotation Yrotation
            JOINT RightHand
            {
              OFFSET -22.0324 0.085362 1.02216
              CHANNELS 3 Zrotation Xrotation Yrotation
              End Site
              {
                OFFSET -13.3284 -0.6 1.50291
              }
            }
          }
        }
      }
      JOINT LeftShoulder1
      {
        OFFSET 8.99 -0.362252 -0.22
        CHANNELS 3 Zrotation Xrotation Yrotation
        JOINT LeftArm
        {
          OFFSET 10.2827 -0.00337999 0.322123
          CHANNELS 3 Zrotation Xrotation Yrotation
          JOINT LeftForeArm
          {
            OFFSET 26.2597 0.099144 -1.42434
            CHANNELS 3 Zrotation Xrotation Yrotation
            JOINT LeftHand
            {
              OFFSET 22.0902 0.085362 1.02216
              CHANNELS 3 Zrotation Xrotation Yrotation
              End Site
              {
                OFFSET 13.419 -0.6 1.50291
              }
            }
          }
        }
      }
      JOINT Head
      {
        OFFSET 0 8.73416 0.011341
        CHANNELS 3 Zrotation Xrotation Yrotation
        End Site
        {
          OFFSET -0.29 12.7742 2.51395
        }
      }
    }
  }
  JOINT RightUpLeg
  {
    OFFSET -8.9458 -8.66707 0.101652
    CHANNELS 3 Zrotation Xrotation Yrotation
    JOINT RightLeg
    {
      OFFSET 0 -44.4227 1.3727
      CHANNELS 3 Zrotation Xrotation Yrotation
      JOINT RightFoot
      {
        OFFSET 0.253549 -42.0924 -1.46059
        CHANNELS 3 Zrotation Xrotation Yrotation
        JOINT RightToes
        {
          OFFSET 0.04 -4.41509 8.4991
          CHANNELS 3 Zrotation Xrotation Yrotation
          End Site
          {
            OFFSET -0.08 -0.137448 9.77979
          }
        }
      }
    }
  }
}
MOTION
Frames:	7
Frame Time:	0.0333333
196.245 103.099 8.96448 -4.42348 0.0250292 -94.2475 -0.537113 2.59755 3.02609 -0.597932 8.90544 21.2318 -2.49957 -11.2633 -0.0207761 -1.39563e-009 8.75199e-006 -1.46473e-008 -1.32687 10.0908 -1.23329 1.59503 -3.24154 -1.52368 36.3043 1.70154 -0.00721273 40.6695 -20.1471 -1.30366 8.62384 39.4307 6.9465 -9.37666 9.59003 -1.1922 -42.5235 3.40605 -3.45565 -30.3617 -11.2844 -2.03266 -6.0059 39.0442 -12.5531 5.82328 9.61819 -0.917488 1.06898 -2.28814 -3.60267 -1.40467 2.67086 -4.60721 0.0736825 10.0702 -12.2729 3.93391 -12.603 -0.0303437 0.0462048 0.000530889 0.662642 
196.244 103.099 8.96448 -4.43607 0.0222363 -94.2238 -0.536969 2.60699 3.03385 -0.603978 8.91267 21.2033 -2.48298 -11.2633 -0.0207761 -1.39563e-009 8.75199e-006 -1.46473e-008 -1.37393 10.0699 -1.2377 1.65196 -3.20684 -1.5399 36.2789 1.70154 -0.00721273 40.7029 -20.1231 -1.29614 8.5703 39.5988 6.9968 -9.01014 9.59044 -1.06693 -42.5274 3.40605 -3.45565 -30.3815 -11.3114 -2.03285 -6.0032 39.0897 -12.5453 5.82328 9.61819 -0.917488 0.956788 -2.09373 -3.0962 -1.41853 2.68539 -4.63589 0.0960679 10.0819 -12.2733 3.95032 -12.6188 -0.0303456 0.0462048 0.000530889 0.662642 
196.245 103.099 8.96547 -4.45781 0.0203208 -94.1862 -0.533068 2.62039 3.0447 -0.611642 8.92426 21.1581 -2.45178 -11.2607 -0.0207759 -1.39563e-009 8.75199e-006 -1.46473e-008 -1.4437 10.0628 -1.24789 1.73981 -3.17652 -1.56915 36.2484 1.70154 -0.00721273 40.7505 -20.0749 -1.28179 8.47761 39.8478 7.08912 -8.55318 9.59088 -0.890582 -42.5516 3.40605 -3.45565 -30.3862 -11.3038 -2.03158 -5.99665 39.1004 -12.5527 5.82328 9.61819 -0.917488 0.772409 -1.89772 -2.12328 -1.43592 2.71494 -4.67406 0.128729 10.0803 -12.2733 3.93814 -12.6274 -0.0303466 0.0462048 0.000530889 0.662642 
196.264 103.099 8.97188 -4.47699 0.0299745 -94.1809 -0.52376 2.62989 3.05725 -0.619018 8.92188 21.142 -2.42222 -11.2487 -0.0207751 -1.39563e-009 8.75199e-006 -1.46473e-008 -1.44531 10.1356 -1.24695 1.76125 -3.23349 -1.57289 36.24 1.70154 -0.00721273 40.7703 -19.9666 -1.30871 8.37084 39.9158 7.24258 -8.373 9.5905 -0.785998 -42.58 3.40605 -3.45565 -30.366 -11.2295 -2.03024 -5.98989 39.0386 -12.5792 5.82328 9.61819 -0.917488 0.63987 -1.92377 -1.3219 -1.4321 2.73603 -4.67564 0.13533 10.0541 -12.2725 3.91495 -12.6032 -0.0303437 0.0462048 0.000530889 0.662642 
196.299 103.099 8.98628 -4.48097 0.0475308 -94.2134 -0.511694 2.62584 3.07002 -0.628308 8.90177 21.1634 -2.40698 -11.2312 -0.0207738 -1.39563e-009 8.75199e-006 -1.46473e-008 -1.38489 10.2317 -1.2306 1.72305 -3.3275 -1.54705 36.238 1.70154 -0.00721273 40.7704 -19.8702 -1.35469 8.29158 39.834 7.3819 -8.3644 9.59215 -0.78284 -42.6065 3.40605 -3.45565 -30.3353 -11.1568 -2.0518 -5.99239 38.9751 -12.5921 5.82328 9.61819 -0.917488 0.595471 -2.03136 -1.23143 -1.41089 2.7263 -4.64176 0.113838 10.0263 -12.2703 3.9144 -12.5592 -0.0303385 0.0462048 0.000530889 0.662642 
196.333 103.1 9.00161 -4.47037 0.0498417 -94.2457 -0.519999 2.61005 3.06175 -0.630378 8.86919 21.2068 -2.40444 -11.207 -0.0207721 -1.39563e-009 8.75199e-006 -1.46473e-008 -1.33942 10.2532 -1.22062 1.68818 -3.35017 -1.52831 36.2265 1.70154 -0.00721273 40.7902 -19.9129 -1.33613 8.28895 39.8264 7.37444 -8.31028 9.59854 -0.851042 -42.6283 3.40605 -3.45565 -30.3115 -11.1999 -2.10722 -6.00678 39.0286 -12.5558 5.82328 9.61819 -0.917488 0.609485 -2.12951 -1.57449 -1.41203 2.68511 -4.62796 0.100964 10.0313 -12.2538 3.92038 -12.5311 -0.0303352 0.0462048 0.000530889 0.662642 
196.364 103.101 9.01245 -4.45866 0.0248374 -94.2641 -0.564458 2.5962 3.01831 -0.614991 8.8253 21.2719 -2.39924 -11.1664 -0.0207692 -1.39563e-009 8.75199e-006 -1.46473e-008 -1.31823 10.2434 -1.23361 1.63539 -3.35173 -1.53168 36.2461 1.70154 -0.00721273 40.8101 -20.016 -1.26619 8.34994 39.868 7.25797 -8.26285 9.60766 -0.96662 -42.6129 3.40605 -3.45565 -30.3122 -11.3227 -2.14208 -6.00736 39.169 -12.5154 5.82328 9.61819 -0.917488 0.599545 -2.07493 -1.62596 -1.45697 2.62979 -4.66444 0.116844 10.0707 -12.2028 3.90626 -12.5323 -0.0303354 0.0462048 0.000530889 0.662642 
